# xmcd
#
# Track frame offsets:
#	182
#	10857
#	24005
#	32132
#	46035
#	60065
#	70107
#	85277
#	95252
#	116295
#	125140
#	137162
#	150777
#	171815
#	191035
#	207307
#	229957
#	243615
#	266040
#	283277
#	305785
#	316355
#
# Disc length: 4380 seconds
#
# Revision: 1
# Processed by: cddbd v1.5PL3 Copyright (c) Steve Scherf et al.
# Submitted via: audiograbber 1.83.01
#
DISCID=2b111a16
DTITLE=COP - Lucerna Live!
DYEAR=1994
DGENRE=Bluegrass
TTITLE0=Harley
TTITLE1=Dal jen se smej
TTITLE2=Plac
TTITLE3=Myslim na Colorado
TTITLE4=Za zdi
TTITLE5=Kladivo
TTITLE6=Pastorale
TTITLE7=Hrou ziskas
TTITLE8=Svita
TTITLE9=Lost and I´ll Never
TTITLE10=Paris-Dakar
TTITLE11=Tva mama vi
TTITLE12=Snilku kral
TTITLE13=Orange Blossom Special
TTITLE14=Sail to Australia
TTITLE15=(host z Dakoty)
TTITLE16=Jupi certe
TTITLE17=Bilym konim
TTITLE18=Kdyz rano vstanes
TTITLE19=Nic vic
TTITLE20=Hey Joe
TTITLE21=Tennessee Waltz
EXTD=
EXTT0=
EXTT1=
EXTT2=
EXTT3=
EXTT4=
EXTT5=
EXTT6=
EXTT7=
EXTT8=
EXTT9=
EXTT10=
EXTT11=
EXTT12=
EXTT13=
EXTT14=
EXTT15=
EXTT16=
EXTT17=
EXTT18=
EXTT19=
EXTT20=
EXTT21=
PLAYORDER=
